STARTFONT 2.1
COMMENT  (c) Copyright Bigelow & Holmes 1986, 1985. Lucida is a registered
COMMENT  trademark of Bigelow & Holmes. See LEGAL NOTICE file for terms 
COMMENT  of the license. 
FONT -B&H-LucidaBright-DemiBold-I-Normal--12-120-75-75-P-72-ISO8859-1
SIZE 12 72 72
FONTBOUNDINGBOX 22 14 -8 -2
STARTPROPERTIES 19
COMMENT Begin LogicalFontDescription
FONTNAME_REGISTRY ""
FOUNDRY "B&H"
FAMILY_NAME "LucidaBright"
WEIGHT_NAME "DemiBold"
SLANT "I"
SETWIDTH_NAME "Normal"
ADD_STYLE_NAME ""
PIXEL_SIZE 12
POINT_SIZE 120
RESOLUTION_X 75
RESOLUTION_Y 75
SPACING "P"
AVERAGE_WIDTH 72
CHARSET_REGISTRY "ISO8859"
CHARSET_ENCODING "1"
COMMENT END LogicalFontDescription
FONT_ASCENT 11
FONT_DESCENT 3
DEFAULT_CHAR 32
COPYRIGHT "Copyright Bigelow & Holmes 1986, 1985."
ENDPROPERTIES
CHARS 228
STARTCHAR space
ENCODING 32
SWIDTH 42 0
DWIDTH 4 0
BBX 1 1 0 0
BITMAP
00
ENDCHAR
STARTCHAR exclam
ENCODING 33
SWIDTH 42 0
DWIDTH 3 0
BBX 3 9 1 0
BITMAP
60
60
60
40
40
40
00
00
C0
ENDCHAR
STARTCHAR quotedbl
ENCODING 34
SWIDTH 42 0
DWIDTH 5 0
BBX 4 4 2 5
BITMAP
D0
D0
90
90
ENDCHAR
STARTCHAR numbersign
ENCODING 35
SWIDTH 42 0
DWIDTH 8 0
BBX 7 9 1 0
BITMAP
1A
14
7E
28
28
FC
50
90
A0
ENDCHAR
STARTCHAR dollar
ENCODING 36
SWIDTH 42 0
DWIDTH 8 0
BBX 7 10 1 -1
BITMAP
3E
2A
6A
30
18
1C
14
AC
F0
20
ENDCHAR
STARTCHAR percent
ENCODING 37
SWIDTH 42 0
DWIDTH 9 0
BBX 9 9 1 0
BITMAP
7080
D900
DA00
7400
0B80
1680
2480
6580
C700
ENDCHAR
STARTCHAR ampersand
ENCODING 38
SWIDTH 42 0
DWIDTH 9 0
BBX 10 9 1 0
BITMAP
0E00
1B00
1200
1C00
79C0
CD80
CD00
C600
7B80
ENDCHAR
STARTCHAR quoteright
ENCODING 39
SWIDTH 42 0
DWIDTH 3 0
BBX 3 4 2 5
BITMAP
60
E0
40
C0
ENDCHAR
STARTCHAR parenleft
ENCODING 40
SWIDTH 42 0
DWIDTH 4 0
BBX 5 11 1 -2
BITMAP
08
30
60
40
C0
C0
C0
C0
C0
40
40
ENDCHAR
STARTCHAR parenright
ENCODING 41
SWIDTH 42 0
DWIDTH 4 0
BBX 4 11 0 -2
BITMAP
20
10
10
10
10
10
30
30
20
40
80
ENDCHAR
STARTCHAR asterisk
ENCODING 42
SWIDTH 42 0
DWIDTH 5 0
BBX 5 4 2 5
BITMAP
30
F8
70
D0
ENDCHAR
STARTCHAR plus
ENCODING 43
SWIDTH 42 0
DWIDTH 7 0
BBX 7 8 1 0
BITMAP
08
10
10
10
FE
10
10
20
ENDCHAR
STARTCHAR comma
ENCODING 44
SWIDTH 42 0
DWIDTH 3 0
BBX 3 4 0 -2
BITMAP
60
60
C0
C0
ENDCHAR
STARTCHAR minus
ENCODING 45
SWIDTH 42 0
DWIDTH 7 0
BBX 7 1 1 3
BITMAP
FE
ENDCHAR
STARTCHAR period
ENCODING 46
SWIDTH 42 0
DWIDTH 3 0
BBX 2 2 1 0
BITMAP
C0
C0
ENDCHAR
STARTCHAR slash
ENCODING 47
SWIDTH 42 0
DWIDTH 6 0
BBX 8 11 0 -2
BITMAP
01
02
04
04
08
18
10
20
20
40
80
ENDCHAR
STARTCHAR zero
ENCODING 48
SWIDTH 42 0
DWIDTH 8 0
BBX 7 9 1 0
BITMAP
1C
26
66
C6
C6
C6
CC
C8
70
ENDCHAR
STARTCHAR one
ENCODING 49
SWIDTH 42 0
DWIDTH 8 0
BBX 5 9 2 0
BITMAP
38
18
18
10
30
30
30
30
F8
ENDCHAR
STARTCHAR two
ENCODING 50
SWIDTH 42 0
DWIDTH 8 0
BBX 7 9 1 0
BITMAP
3C
26
66
06
0C
30
60
C0
FC
ENDCHAR
STARTCHAR three
ENCODING 51
SWIDTH 42 0
DWIDTH 8 0
BBX 7 9 1 0
BITMAP
3C
26
04
0C
38
0C
0C
8C
F8
ENDCHAR
STARTCHAR four
ENCODING 52
SWIDTH 42 0
DWIDTH 8 0
BBX 7 9 1 0
BITMAP
06
0E
14
24
4C
FE
0C
08
3C
ENDCHAR
STARTCHAR five
ENCODING 53
SWIDTH 42 0
DWIDTH 8 0
BBX 7 9 1 0
BITMAP
3E
20
40
70
1C
0C
8C
88
F0
ENDCHAR
STARTCHAR six
ENCODING 54
SWIDTH 42 0
DWIDTH 8 0
BBX 7 9 1 0
BITMAP
1E
22
60
FC
CC
C4
C4
CC
78
ENDCHAR
STARTCHAR seven
ENCODING 55
SWIDTH 42 0
DWIDTH 8 0
BBX 7 9 2 0
BITMAP
7E
04
04
08
10
20
60
C0
C0
ENDCHAR
STARTCHAR eight
ENCODING 56
SWIDTH 42 0
DWIDTH 8 0
BBX 7 9 1 0
BITMAP
1C
26
66
34
3C
CE
C6
C4
78
ENDCHAR
STARTCHAR nine
ENCODING 57
SWIDTH 42 0
DWIDTH 8 0
BBX 7 9 1 0
BITMAP
1C
66
46
46
66
7E
0C
88
F0
ENDCHAR
STARTCHAR colon
ENCODING 58
SWIDTH 42 0
DWIDTH 3 0
BBX 3 6 1 0
BITMAP
60
60
00
00
C0
C0
ENDCHAR
STARTCHAR semicolon
ENCODING 59
SWIDTH 42 0
DWIDTH 3 0
BBX 3 8 0 -2
BITMAP
60
60
00
00
40
C0
40
80
ENDCHAR
STARTCHAR less
ENCODING 60
SWIDTH 42 0
DWIDTH 7 0
BBX 8 8 1 0
BITMAP
01
06
18
E0
60
10
0C
02
ENDCHAR
STARTCHAR equal
ENCODING 61
SWIDTH 42 0
DWIDTH 7 0
BBX 8 3 0 2
BITMAP
FF
00
FF
ENDCHAR
STARTCHAR greater
ENCODING 62
SWIDTH 42 0
DWIDTH 7 0
BBX 8 8 0 0
BITMAP
40
30
08
06
07
18
60
80
ENDCHAR
STARTCHAR question
ENCODING 63
SWIDTH 42 0
DWIDTH 6 0
BBX 5 9 2 0
BITMAP
F0
98
18
10
20
40
C0
00
C0
ENDCHAR
STARTCHAR at
ENCODING 64
SWIDTH 42 0
DWIDTH 10 0
BBX 10 9 1 0
BITMAP
0F00
3080
4C40
9340
9640
9640
9B80
4000
3C00
ENDCHAR
STARTCHAR A
ENCODING 65
SWIDTH 42 0
DWIDTH 9 0
BBX 9 9 0 0
BITMAP
0600
0600
0E00
1200
1300
3F00
4300
4300
C380
ENDCHAR
STARTCHAR B
ENCODING 66
SWIDTH 42 0
DWIDTH 8 0
BBX 8 9 0 0
BITMAP
3F
33
33
32
3C
26
63
66
FC
ENDCHAR
STARTCHAR C
ENCODING 67
SWIDTH 42 0
DWIDTH 9 0
BBX 8 9 1 0
BITMAP
1F
31
61
C0
C0
C0
C0
E2
7C
ENDCHAR
STARTCHAR D
ENCODING 68
SWIDTH 42 0
DWIDTH 10 0
BBX 10 9 0 0
BITMAP
3F80
31C0
30C0
30C0
30C0
30C0
6180
6300
FE00
ENDCHAR
STARTCHAR E
ENCODING 69
SWIDTH 42 0
DWIDTH 8 0
BBX 8 9 0 0
BITMAP
3F
31
30
36
3C
24
60
62
FE
ENDCHAR
STARTCHAR F
ENCODING 70
SWIDTH 42 0
DWIDTH 7 0
BBX 8 9 0 0
BITMAP
3F
31
30
34
3C
24
60
60
F0
ENDCHAR
STARTCHAR G
ENCODING 71
SWIDTH 42 0
DWIDTH 9 0
BBX 8 9 2 0
BITMAP
1F
31
61
C0
C0
C7
C6
E6
7E
ENDCHAR
STARTCHAR H
ENCODING 72
SWIDTH 42 0
DWIDTH 10 0
BBX 11 9 0 0
BITMAP
3DE0
30C0
30C0
3080
3F80
3180
6180
6180
F780
ENDCHAR
STARTCHAR I
ENCODING 73
SWIDTH 42 0
DWIDTH 4 0
BBX 5 9 1 0
BITMAP
78
30
30
30
20
60
60
60
F0
ENDCHAR
STARTCHAR J
ENCODING 74
SWIDTH 42 0
DWIDTH 6 0
BBX 7 11 0 -2
BITMAP
1E
0C
0C
0C
08
18
18
18
18
B0
E0
ENDCHAR
STARTCHAR K
ENCODING 75
SWIDTH 42 0
DWIDTH 9 0
BBX 9 9 1 0
BITMAP
3980
3300
3200
3C00
3800
2C00
6600
6700
E700
ENDCHAR
STARTCHAR L
ENCODING 76
SWIDTH 42 0
DWIDTH 7 0
BBX 7 9 0 0
BITMAP
38
30
30
30
30
20
60
62
FE
ENDCHAR
STARTCHAR M
ENCODING 77
SWIDTH 42 0
DWIDTH 11 0
BBX 12 9 0 0
BITMAP
3870
3860
38E0
3940
2D40
2EC0
4CC0
40C0
E1C0
ENDCHAR
STARTCHAR N
ENCODING 78
SWIDTH 42 0
DWIDTH 10 0
BBX 10 9 1 0
BITMAP
31C0
3080
3880
2880
2D00
2500
4700
4300
E300
ENDCHAR
STARTCHAR O
ENCODING 79
SWIDTH 42 0
DWIDTH 10 0
BBX 9 9 1 0
BITMAP
1F00
3180
6180
4180
C180
C180
C300
C600
7C00
ENDCHAR
STARTCHAR P
ENCODING 80
SWIDTH 42 0
DWIDTH 8 0
BBX 8 9 0 0
BITMAP
3E
33
33
36
3C
20
60
60
F0
ENDCHAR
STARTCHAR Q
ENCODING 81
SWIDTH 42 0
DWIDTH 10 0
BBX 10 11 1 -2
BITMAP
1F00
3180
6180
4180
C180
C180
C300
C600
7C00
0400
03C0
ENDCHAR
STARTCHAR R
ENCODING 82
SWIDTH 42 0
DWIDTH 9 0
BBX 8 9 1 0
BITMAP
3F
33
33
36
3C
2C
66
66
E3
ENDCHAR
STARTCHAR S
ENCODING 83
SWIDTH 42 0
DWIDTH 7 0
BBX 7 9 1 0
BITMAP
1E
22
62
70
38
0C
8C
8C
F8
ENDCHAR
STARTCHAR T
ENCODING 84
SWIDTH 42 0
DWIDTH 9 0
BBX 8 9 2 0
BITMAP
FF
99
18
10
30
30
30
30
78
ENDCHAR
STARTCHAR U
ENCODING 85
SWIDTH 42 0
DWIDTH 9 0
BBX 9 9 2 0
BITMAP
F380
6100
6100
4200
C200
C200
C200
C400
7800
ENDCHAR
STARTCHAR V
ENCODING 86
SWIDTH 42 0
DWIDTH 9 0
BBX 9 9 2 0
BITMAP
E180
6100
6300
6200
6400
3400
3800
3800
3000
ENDCHAR
STARTCHAR W
ENCODING 87
SWIDTH 42 0
DWIDTH 11 0
BBX 11 9 2 0
BITMAP
E460
4440
4C40
4E80
5680
7700
7700
6600
4600
ENDCHAR
STARTCHAR X
ENCODING 88
SWIDTH 42 0
DWIDTH 8 0
BBX 9 9 0 0
BITMAP
3980
3100
1A00
1C00
0C00
1C00
2600
4600
CF00
ENDCHAR
STARTCHAR Y
ENCODING 89
SWIDTH 42 0
DWIDTH 8 0
BBX 8 9 2 0
BITMAP
E3
62
64
28
30
30
30
30
F0
ENDCHAR
STARTCHAR Z
ENCODING 90
SWIDTH 42 0
DWIDTH 8 0
BBX 8 9 1 0
BITMAP
3F
26
0E
0C
18
30
70
62
FE
ENDCHAR
STARTCHAR bracketleft
ENCODING 91
SWIDTH 42 0
DWIDTH 4 0
BBX 5 11 0 -2
BITMAP
38
30
20
20
60
60
40
40
40
C0
E0
ENDCHAR
STARTCHAR backslash
ENCODING 92
SWIDTH 42 0
DWIDTH 6 0
BBX 4 11 2 -2
BITMAP
80
80
40
40
40
60
20
20
20
10
10
ENDCHAR
STARTCHAR bracketright
ENCODING 93
SWIDTH 42 0
DWIDTH 4 0
BBX 5 11 0 -2
BITMAP
38
18
10
10
10
30
30
20
20
60
E0
ENDCHAR
STARTCHAR asciicircum
ENCODING 94
SWIDTH 42 0
DWIDTH 7 0
BBX 7 8 1 1
BITMAP
08
08
14
14
24
44
42
82
ENDCHAR
STARTCHAR underscore
ENCODING 95
SWIDTH 42 0
DWIDTH 6 0
BBX 5 1 0 -1
BITMAP
F8
ENDCHAR
STARTCHAR quoteleft
ENCODING 96
SWIDTH 42 0
DWIDTH 3 0
BBX 3 4 2 5
BITMAP
60
40
E0
C0
ENDCHAR
STARTCHAR a
ENCODING 97
SWIDTH 42 0
DWIDTH 8 0
BBX 7 6 1 0
BITMAP
1E
66
44
CC
DC
EE
ENDCHAR
STARTCHAR b
ENCODING 98
SWIDTH 42 0
DWIDTH 8 0
BBX 7 9 1 0
BITMAP
70
20
60
6E
76
66
44
CC
F0
ENDCHAR
STARTCHAR c
ENCODING 99
SWIDTH 42 0
DWIDTH 6 0
BBX 6 6 1 0
BITMAP
3C
64
C4
C0
C0
78
ENDCHAR
STARTCHAR d
ENCODING 100
SWIDTH 42 0
DWIDTH 8 0
BBX 8 9 1 0
BITMAP
07
03
02
1E
66
46
CE
D4
EE
ENDCHAR
STARTCHAR e
ENCODING 101
SWIDTH 42 0
DWIDTH 7 0
BBX 6 6 1 0
BITMAP
38
6C
C8
F0
C4
78
ENDCHAR
STARTCHAR f
ENCODING 102
SWIDTH 42 0
DWIDTH 5 0
BBX 7 11 0 -2
BITMAP
1E
12
30
7C
30
60
60
60
60
C0
C0
ENDCHAR
STARTCHAR g
ENCODING 103
SWIDTH 42 0
DWIDTH 8 0
BBX 7 8 1 -2
BITMAP
1E
26
66
4C
DC
6C
88
F0
ENDCHAR
STARTCHAR h
ENCODING 104
SWIDTH 42 0
DWIDTH 8 0
BBX 7 9 1 0
BITMAP
70
20
60
6E
76
66
44
CC
CE
ENDCHAR
STARTCHAR i
ENCODING 105
SWIDTH 42 0
DWIDTH 4 0
BBX 4 9 1 0
BITMAP
30
30
00
E0
60
60
40
C0
E0
ENDCHAR
STARTCHAR j
ENCODING 106
SWIDTH 42 0
DWIDTH 5 0
BBX 7 11 0 -2
BITMAP
06
06
00
1C
0C
0C
0C
18
18
90
E0
ENDCHAR
STARTCHAR k
ENCODING 107
SWIDTH 42 0
DWIDTH 8 0
BBX 7 9 1 0
BITMAP
70
20
60
66
6C
78
58
CC
CE
ENDCHAR
STARTCHAR l
ENCODING 108
SWIDTH 42 0
DWIDTH 4 0
BBX 4 9 1 0
BITMAP
70
30
20
60
60
60
40
C0
E0
ENDCHAR
STARTCHAR m
ENCODING 109
SWIDTH 42 0
DWIDTH 12 0
BBX 11 6 1 0
BITMAP
EEE0
7760
6660
4640
CC40
CCE0
ENDCHAR
STARTCHAR n
ENCODING 110
SWIDTH 42 0
DWIDTH 8 0
BBX 7 6 1 0
BITMAP
EE
76
66
64
CC
CE
ENDCHAR
STARTCHAR o
ENCODING 111
SWIDTH 42 0
DWIDTH 7 0
BBX 7 6 1 0
BITMAP
3C
66
C6
C4
CC
70
ENDCHAR
STARTCHAR p
ENCODING 112
SWIDTH 42 0
DWIDTH 8 0
BBX 7 8 1 -2
BITMAP
6E
76
66
66
4C
F8
C0
C0
ENDCHAR
STARTCHAR q
ENCODING 113
SWIDTH 42 0
DWIDTH 8 0
BBX 7 8 1 -2
BITMAP
1E
66
44
CC
DC
EC
0C
08
ENDCHAR
STARTCHAR r
ENCODING 114
SWIDTH 42 0
DWIDTH 6 0
BBX 6 6 1 0
BITMAP
EC
78
70
60
C0
C0
ENDCHAR
STARTCHAR s
ENCODING 115
SWIDTH 42 0
DWIDTH 6 0
BBX 6 6 1 0
BITMAP
3C
68
70
38
98
F0
ENDCHAR
STARTCHAR t
ENCODING 116
SWIDTH 42 0
DWIDTH 4 0
BBX 4 9 1 0
BITMAP
20
60
60
F0
40
40
C0
C0
E0
ENDCHAR
STARTCHAR u
ENCODING 117
SWIDTH 42 0
DWIDTH 8 0
BBX 7 6 1 0
BITMAP
EE
66
44
CC
DC
EE
ENDCHAR
STARTCHAR v
ENCODING 118
SWIDTH 42 0
DWIDTH 7 0
BBX 7 6 1 0
BITMAP
E6
66
64
28
30
20
ENDCHAR
STARTCHAR w
ENCODING 119
SWIDTH 42 0
DWIDTH 10 0
BBX 10 6 1 0
BITMAP
C4C0
6CC0
6C80
3700
3600
2600
ENDCHAR
STARTCHAR x
ENCODING 120
SWIDTH 42 0
DWIDTH 6 0
BBX 6 6 1 0
BITMAP
6C
2C
30
30
58
8C
ENDCHAR
STARTCHAR y
ENCODING 121
SWIDTH 42 0
DWIDTH 7 0
BBX 8 8 0 -2
BITMAP
73
33
32
14
18
10
20
C0
ENDCHAR
STARTCHAR z
ENCODING 122
SWIDTH 42 0
DWIDTH 7 0
BBX 7 6 0 0
BITMAP
7E
4C
18
30
64
FC
ENDCHAR
STARTCHAR braceleft
ENCODING 123
SWIDTH 42 0
DWIDTH 4 0
BBX 4 11 1 -2
BITMAP
30
60
60
60
60
C0
40
40
C0
C0
C0
ENDCHAR
STARTCHAR bar
ENCODING 124
SWIDTH 42 0
DWIDTH 3 0
BBX 3 11 1 -2
BITMAP
20
20
20
40
40
40
40
40
80
80
80
ENDCHAR
STARTCHAR braceright
ENCODING 125
SWIDTH 42 0
DWIDTH 4 0
BBX 4 11 1 -2
BITMAP
30
10
30
20
20
30
60
60
60
60
C0
ENDCHAR
STARTCHAR asciitilde
ENCODING 126
SWIDTH 42 0
DWIDTH 7 0
BBX 7 3 1 2
BITMAP
62
92
8C
ENDCHAR
STARTCHAR exclamdown
ENCODING 161
SWIDTH 42 0
DWIDTH 3 0
BBX 3 8 0 -2
BITMAP
60
00
40
40
40
40
C0
C0
ENDCHAR
STARTCHAR cent
ENCODING 162
SWIDTH 42 0
DWIDTH 8 0
BBX 6 9 2 0
BITMAP
08
3C
74
50
D0
D0
D0
78
20
ENDCHAR
STARTCHAR sterling
ENCODING 163
SWIDTH 42 0
DWIDTH 8 0
BBX 7 9 1 0
BITMAP
1E
12
30
30
78
30
20
40
FC
ENDCHAR
STARTCHAR currency
ENCODING 164
SWIDTH 42 0
DWIDTH 8 0
BBX 9 9 0 0
BITMAP
4080
3D00
1200
2200
2200
2200
2400
5E00
8200
ENDCHAR
STARTCHAR yen
ENCODING 165
SWIDTH 42 0
DWIDTH 8 0
BBX 8 9 2 0
BITMAP
E3
66
38
78
30
F8
30
20
70
ENDCHAR
STARTCHAR brokenbar
ENCODING 166
SWIDTH 42 0
DWIDTH 3 0
BBX 3 11 1 -2
BITMAP
20
20
20
40
40
00
40
40
80
80
80
ENDCHAR
STARTCHAR section
ENCODING 167
SWIDTH 42 0
DWIDTH 8 0
BBX 7 11 1 -2
BITMAP
1E
62
20
38
5C
44
74
18
0C
8C
F8
ENDCHAR
STARTCHAR dieresis
ENCODING 168
SWIDTH 42 0
DWIDTH 7 0
BBX 4 1 3 8
BITMAP
F0
ENDCHAR
STARTCHAR copyright
ENCODING 169
SWIDTH 42 0
DWIDTH 10 0
BBX 10 9 1 0
BITMAP
1E00
6180
8F40
9140
9040
9040
9E40
6180
1E00
ENDCHAR
STARTCHAR ordfeminine
ENCODING 170
SWIDTH 42 0
DWIDTH 6 0
BBX 5 5 1 4
BITMAP
38
58
D8
F8
D8
ENDCHAR
STARTCHAR guillemotleft
ENCODING 171
SWIDTH 42 0
DWIDTH 6 0
BBX 6 6 1 0
BITMAP
24
68
58
D0
58
68
ENDCHAR
STARTCHAR logicalnot
ENCODING 172
SWIDTH 42 0
DWIDTH 7 0
BBX 7 3 1 2
BITMAP
FE
02
02
ENDCHAR
STARTCHAR hyphen
ENCODING 173
SWIDTH 42 0
DWIDTH 3 0
BBX 3 1 1 3
BITMAP
E0
ENDCHAR
STARTCHAR registered
ENCODING 174
SWIDTH 42 0
DWIDTH 8 0
BBX 7 6 2 3
BITMAP
78
84
BA
A2
94
78
ENDCHAR
STARTCHAR macron
ENCODING 175
SWIDTH 42 0
DWIDTH 7 0
BBX 4 1 3 8
BITMAP
F0
ENDCHAR
STARTCHAR degree
ENCODING 176
SWIDTH 42 0
DWIDTH 3 0
BBX 3 2 3 7
BITMAP
E0
60
ENDCHAR
STARTCHAR plusminus
ENCODING 177
SWIDTH 42 0
DWIDTH 7 0
BBX 8 8 0 0
BITMAP
08
08
08
7F
08
18
00
FE
ENDCHAR
STARTCHAR twosuperior
ENCODING 178
SWIDTH 42 0
DWIDTH 5 0
BBX 4 5 -7 4
BITMAP
70
50
30
40
E0
ENDCHAR
STARTCHAR threesuperior
ENCODING 179
SWIDTH 42 0
DWIDTH 5 0
BBX 4 5 -7 4
BITMAP
70
50
60
90
E0
ENDCHAR
STARTCHAR acute
ENCODING 180
SWIDTH 42 0
DWIDTH 7 0
BBX 3 2 4 7
BITMAP
60
80
ENDCHAR
STARTCHAR mu
ENCODING 181
SWIDTH 42 0
DWIDTH 8 0
BBX 7 8 1 -2
BITMAP
6E
66
66
6C
5C
6E
C0
C0
ENDCHAR
STARTCHAR paragraph
ENCODING 182
SWIDTH 42 0
DWIDTH 8 0
BBX 5 11 2 -2
BITMAP
78
E8
E8
E8
30
50
50
50
50
50
50
ENDCHAR
STARTCHAR periodcentered
ENCODING 183
SWIDTH 42 0
DWIDTH 7 0
BBX 2 1 3 3
BITMAP
C0
ENDCHAR
STARTCHAR cedilla
ENCODING 184
SWIDTH 42 0
DWIDTH 7 0
BBX 2 2 2 -2
BITMAP
C0
C0
ENDCHAR
STARTCHAR onesuperior
ENCODING 185
SWIDTH 42 0
DWIDTH 5 0
BBX 3 5 -8 4
BITMAP
60
20
40
40
E0
ENDCHAR
STARTCHAR ordmasculine
ENCODING 186
SWIDTH 42 0
DWIDTH 6 0
BBX 5 5 1 4
BITMAP
38
48
C8
D8
E0
ENDCHAR
STARTCHAR guillemotright
ENCODING 187
SWIDTH 42 0
DWIDTH 6 0
BBX 6 6 1 0
BITMAP
58
68
2C
68
58
90
ENDCHAR
STARTCHAR onequarter
ENCODING 188
SWIDTH 42 0
DWIDTH 10 0
BBX 10 9 3 0
BITMAP
60C0
2180
4300
4600
ED80
1A80
3780
6100
C380
ENDCHAR
STARTCHAR onehalf
ENCODING 189
SWIDTH 42 0
DWIDTH 10 0
BBX 10 9 3 0
BITMAP
60C0
2180
4300
4600
EF80
1A80
3180
6200
C700
ENDCHAR
STARTCHAR threequarters
ENCODING 190
SWIDTH 42 0
DWIDTH 10 0
BBX 10 9 3 0
BITMAP
70C0
5180
6300
9600
ED80
1A80
3780
6100
C380
ENDCHAR
STARTCHAR questiondown
ENCODING 191
SWIDTH 42 0
DWIDTH 6 0
BBX 5 8 0 -2
BITMAP
18
00
18
30
40
C0
C8
78
ENDCHAR
STARTCHAR Agrave
ENCODING 192
SWIDTH 42 0
DWIDTH 9 0
BBX 9 12 0 0
BITMAP
0400
0200
0000
0600
0600
0E00
1200
1300
3F00
4300
4300
C380
ENDCHAR
STARTCHAR Aacute
ENCODING 193
SWIDTH 42 0
DWIDTH 9 0
BBX 9 12 0 0
BITMAP
0300
0400
0000
0600
0600
0E00
1200
1300
3F00
4300
4300
C380
ENDCHAR
STARTCHAR Acircumflex
ENCODING 194
SWIDTH 42 0
DWIDTH 9 0
BBX 9 12 0 0
BITMAP
0600
0900
0000
0600
0600
0E00
1200
1300
3F00
4300
4300
C380
ENDCHAR
STARTCHAR Atilde
ENCODING 195
SWIDTH 42 0
DWIDTH 9 0
BBX 9 12 0 0
BITMAP
0500
0A00
0000
0600
0600
0E00
1200
1300
3F00
4300
4300
C380
ENDCHAR
STARTCHAR Adieresis
ENCODING 196
SWIDTH 42 0
DWIDTH 9 0
BBX 9 11 0 0
BITMAP
0F00
0000
0600
0600
0E00
1200
1300
3F00
4300
4300
C380
ENDCHAR
STARTCHAR Aring
ENCODING 197
SWIDTH 42 0
DWIDTH 9 0
BBX 9 12 0 0
BITMAP
0300
0300
0000
0600
0600
0E00
1200
1300
3F00
4300
4300
C380
ENDCHAR
STARTCHAR AE
ENCODING 198
SWIDTH 42 0
DWIDTH 11 0
BBX 13 9 0 0
BITMAP
01F8
0388
0590
09E0
0B20
1F00
2300
4310
C7F0
ENDCHAR
STARTCHAR Ccedilla
ENCODING 199
SWIDTH 42 0
DWIDTH 9 0
BBX 8 11 1 -2
BITMAP
1F
31
61
C0
C0
C0
C0
E2
7C
60
60
ENDCHAR
STARTCHAR Egrave
ENCODING 200
SWIDTH 42 0
DWIDTH 8 0
BBX 8 12 0 0
BITMAP
08
04
00
3F
31
30
36
3C
24
60
62
FE
ENDCHAR
STARTCHAR Eacute
ENCODING 201
SWIDTH 42 0
DWIDTH 8 0
BBX 8 12 0 0
BITMAP
06
08
00
3F
31
30
36
3C
24
60
62
FE
ENDCHAR
STARTCHAR Ecircumflex
ENCODING 202
SWIDTH 42 0
DWIDTH 8 0
BBX 8 12 0 0
BITMAP
0C
12
00
3F
31
30
36
3C
24
60
62
FE
ENDCHAR
STARTCHAR Edieresis
ENCODING 203
SWIDTH 42 0
DWIDTH 8 0
BBX 8 11 0 0
BITMAP
1E
00
3F
31
30
36
3C
24
60
62
FE
ENDCHAR
STARTCHAR Igrave
ENCODING 204
SWIDTH 42 0
DWIDTH 4 0
BBX 5 12 1 0
BITMAP
20
10
00
78
30
30
30
20
60
60
60
F0
ENDCHAR
STARTCHAR Iacute
ENCODING 205
SWIDTH 42 0
DWIDTH 4 0
BBX 6 12 1 0
BITMAP
0C
10
00
78
30
30
30
20
60
60
60
F0
ENDCHAR
STARTCHAR Icircumflex
ENCODING 206
SWIDTH 42 0
DWIDTH 4 0
BBX 5 12 1 0
BITMAP
30
48
00
78
30
30
30
20
60
60
60
F0
ENDCHAR
STARTCHAR Idieresis
ENCODING 207
SWIDTH 42 0
DWIDTH 4 0
BBX 6 11 1 0
BITMAP
3C
00
78
30
30
30
20
60
60
60
F0
ENDCHAR
STARTCHAR Eth
ENCODING 208
SWIDTH 42 0
DWIDTH 10 0
BBX 10 9 0 0
BITMAP
3F80
31C0
30C0
30C0
7CC0
30C0
6180
6300
FE00
ENDCHAR
STARTCHAR Ntilde
ENCODING 209
SWIDTH 42 0
DWIDTH 10 0
BBX 10 12 1 0
BITMAP
0500
0A00
0000
31C0
3080
3880
2880
2D00
2500
4700
4300
E300
ENDCHAR
STARTCHAR Ograve
ENCODING 210
SWIDTH 42 0
DWIDTH 10 0
BBX 9 12 1 0
BITMAP
0800
0400
0000
1F00
3180
6180
4180
C180
C180
C300
C600
7C00
ENDCHAR
STARTCHAR Oacute
ENCODING 211
SWIDTH 42 0
DWIDTH 10 0
BBX 9 12 1 0
BITMAP
0300
0400
0000
1F00
3180
6180
4180
C180
C180
C300
C600
7C00
ENDCHAR
STARTCHAR Ocircumflex
ENCODING 212
SWIDTH 42 0
DWIDTH 10 0
BBX 9 12 1 0
BITMAP
0600
0900
0000
1F00
3180
6180
4180
C180
C180
C300
C600
7C00
ENDCHAR
STARTCHAR Otilde
ENCODING 213
SWIDTH 42 0
DWIDTH 10 0
BBX 9 12 1 0
BITMAP
0500
0A00
0000
1F00
3180
6180
4180
C180
C180
C300
C600
7C00
ENDCHAR
STARTCHAR Odieresis
ENCODING 214
SWIDTH 42 0
DWIDTH 10 0
BBX 9 11 1 0
BITMAP
0F00
0000
1F00
3180
6180
4180
C180
C180
C300
C600
7C00
ENDCHAR
STARTCHAR multiply
ENCODING 215
SWIDTH 42 0
DWIDTH 7 0
BBX 8 8 0 0
BITMAP
41
22
34
18
18
2C
44
82
ENDCHAR
STARTCHAR Oslash
ENCODING 216
SWIDTH 42 0
DWIDTH 10 0
BBX 11 9 1 0
BITMAP
0F60
1180
31C0
62C0
64C0
7880
7180
6300
FC00
ENDCHAR
STARTCHAR Ugrave
ENCODING 217
SWIDTH 42 0
DWIDTH 9 0
BBX 9 12 2 0
BITMAP
0800
0400
0000
F380
6100
6100
4200
C200
C200
C200
C400
7800
ENDCHAR
STARTCHAR Uacute
ENCODING 218
SWIDTH 42 0
DWIDTH 9 0
BBX 9 12 2 0
BITMAP
0600
0800
0000
F380
6100
6100
4200
C200
C200
C200
C400
7800
ENDCHAR
STARTCHAR Ucircumflex
ENCODING 219
SWIDTH 42 0
DWIDTH 9 0
BBX 9 12 2 0
BITMAP
0C00
1200
0000
F380
6100
6100
4200
C200
C200
C200
C400
7800
ENDCHAR
STARTCHAR Udieresis
ENCODING 220
SWIDTH 42 0
DWIDTH 9 0
BBX 9 11 2 0
BITMAP
1E00
0000
F380
6100
6100
4200
C200
C200
C200
C400
7800
ENDCHAR
STARTCHAR Yacute
ENCODING 221
SWIDTH 42 0
DWIDTH 8 0
BBX 8 12 2 0
BITMAP
0C
10
00
E3
62
64
28
30
30
30
30
F0
ENDCHAR
STARTCHAR Thorn
ENCODING 222
SWIDTH 42 0
DWIDTH 8 0
BBX 8 9 0 0
BITMAP
3C
30
3F
33
33
26
7C
60
F0
ENDCHAR
STARTCHAR germandbls
ENCODING 223
SWIDTH 42 0
DWIDTH 8 0
BBX 7 11 1 -2
BITMAP
1C
36
34
28
68
6C
66
56
5C
C0
C0
ENDCHAR
STARTCHAR agrave
ENCODING 224
SWIDTH 42 0
DWIDTH 8 0
BBX 7 9 1 0
BITMAP
08
04
00
1E
66
44
CC
DC
EE
ENDCHAR
STARTCHAR aacute
ENCODING 225
SWIDTH 42 0
DWIDTH 8 0
BBX 7 9 1 0
BITMAP
06
08
00
1E
66
44
CC
DC
EE
ENDCHAR
STARTCHAR acircumflex
ENCODING 226
SWIDTH 42 0
DWIDTH 8 0
BBX 7 9 1 0
BITMAP
0C
12
00
1E
66
44
CC
DC
EE
ENDCHAR
STARTCHAR atilde
ENCODING 227
SWIDTH 42 0
DWIDTH 8 0
BBX 7 9 1 0
BITMAP
0A
14
00
1E
66
44
CC
DC
EE
ENDCHAR
STARTCHAR adieresis
ENCODING 228
SWIDTH 42 0
DWIDTH 8 0
BBX 7 8 1 0
BITMAP
1E
00
1E
66
44
CC
DC
EE
ENDCHAR
STARTCHAR aring
ENCODING 229
SWIDTH 42 0
DWIDTH 8 0
BBX 7 9 1 0
BITMAP
0C
0C
00
1E
66
44
CC
DC
EE
ENDCHAR
STARTCHAR ae
ENCODING 230
SWIDTH 42 0
DWIDTH 11 0
BBX 10 6 1 0
BITMAP
1FC0
66C0
44C0
CF80
DC40
E780
ENDCHAR
STARTCHAR ccedilla
ENCODING 231
SWIDTH 42 0
DWIDTH 6 0
BBX 6 8 1 -2
BITMAP
3C
64
C4
C0
C0
78
60
60
ENDCHAR
STARTCHAR egrave
ENCODING 232
SWIDTH 42 0
DWIDTH 7 0
BBX 6 9 1 0
BITMAP
10
08
00
38
6C
C8
F0
C4
78
ENDCHAR
STARTCHAR eacute
ENCODING 233
SWIDTH 42 0
DWIDTH 7 0
BBX 6 9 1 0
BITMAP
0C
10
00
38
6C
C8
F0
C4
78
ENDCHAR
STARTCHAR ecircumflex
ENCODING 234
SWIDTH 42 0
DWIDTH 7 0
BBX 6 9 1 0
BITMAP
18
24
00
38
6C
C8
F0
C4
78
ENDCHAR
STARTCHAR edieresis
ENCODING 235
SWIDTH 42 0
DWIDTH 7 0
BBX 6 8 1 0
BITMAP
3C
00
38
6C
C8
F0
C4
78
ENDCHAR
STARTCHAR igrave
ENCODING 236
SWIDTH 42 0
DWIDTH 4 0
BBX 3 9 1 0
BITMAP
40
20
00
E0
60
40
40
C0
E0
ENDCHAR
STARTCHAR iacute
ENCODING 237
SWIDTH 42 0
DWIDTH 4 0
BBX 5 9 1 0
BITMAP
18
20
00
E0
60
40
40
C0
E0
ENDCHAR
STARTCHAR icircumflex
ENCODING 238
SWIDTH 42 0
DWIDTH 4 0
BBX 5 9 1 0
BITMAP
30
48
00
E0
60
40
40
C0
E0
ENDCHAR
STARTCHAR idieresis
ENCODING 239
SWIDTH 42 0
DWIDTH 4 0
BBX 5 8 1 0
BITMAP
78
00
E0
60
40
40
C0
E0
ENDCHAR
STARTCHAR eth
ENCODING 240
SWIDTH 42 0
DWIDTH 7 0
BBX 7 9 1 0
BITMAP
7C
18
2C
3C
64
C6
C4
C8
70
ENDCHAR
STARTCHAR ntilde
ENCODING 241
SWIDTH 42 0
DWIDTH 8 0
BBX 7 9 1 0
BITMAP
0A
14
00
EE
76
66
64
CC
CE
ENDCHAR
STARTCHAR ograve
ENCODING 242
SWIDTH 42 0
DWIDTH 7 0
BBX 7 9 1 0
BITMAP
10
08
00
3C
66
C6
C4
CC
70
ENDCHAR
STARTCHAR oacute
ENCODING 243
SWIDTH 42 0
DWIDTH 7 0
BBX 7 9 1 0
BITMAP
0C
10
00
3C
66
C6
C4
CC
70
ENDCHAR
STARTCHAR ocircumflex
ENCODING 244
SWIDTH 42 0
DWIDTH 7 0
BBX 7 9 1 0
BITMAP
18
24
00
3C
66
C6
C4
CC
70
ENDCHAR
STARTCHAR otilde
ENCODING 245
SWIDTH 42 0
DWIDTH 7 0
BBX 7 9 1 0
BITMAP
0A
14
00
3C
66
C6
C4
CC
70
ENDCHAR
STARTCHAR odieresis
ENCODING 246
SWIDTH 42 0
DWIDTH 7 0
BBX 7 8 1 0
BITMAP
1E
00
3C
66
C6
C4
CC
70
ENDCHAR
STARTCHAR divide
ENCODING 247
SWIDTH 42 0
DWIDTH 7 0
BBX 7 6 1 0
BITMAP
18
00
FE
00
00
30
ENDCHAR
STARTCHAR oslash
ENCODING 248
SWIDTH 42 0
DWIDTH 7 0
BBX 8 6 0 0
BITMAP
1F
26
6E
F6
64
F8
ENDCHAR
STARTCHAR ugrave
ENCODING 249
SWIDTH 42 0
DWIDTH 8 0
BBX 7 9 1 0
BITMAP
10
08
00
EE
66
44
CC
DC
EE
ENDCHAR
STARTCHAR uacute
ENCODING 250
SWIDTH 42 0
DWIDTH 8 0
BBX 7 9 1 0
BITMAP
06
08
00
EE
66
44
CC
DC
EE
ENDCHAR
STARTCHAR ucircumflex
ENCODING 251
SWIDTH 42 0
DWIDTH 8 0
BBX 7 9 1 0
BITMAP
0C
12
00
EE
66
44
CC
DC
EE
ENDCHAR
STARTCHAR udieresis
ENCODING 252
SWIDTH 42 0
DWIDTH 8 0
BBX 7 8 1 0
BITMAP
1E
00
EE
66
44
CC
DC
EE
ENDCHAR
STARTCHAR yacute
ENCODING 253
SWIDTH 42 0
DWIDTH 7 0
BBX 8 11 0 -2
BITMAP
03
04
00
73
33
32
14
18
10
20
C0
ENDCHAR
STARTCHAR thorn
ENCODING 254
SWIDTH 42 0
DWIDTH 8 0
BBX 7 11 1 -2
BITMAP
70
20
20
6E
76
66
66
4C
F8
C0
C0
ENDCHAR
STARTCHAR ydieresis
ENCODING 255
SWIDTH 42 0
DWIDTH 7 0
BBX 8 10 0 -2
BITMAP
0F
00
73
33
32
14
18
10
20
C0
ENDCHAR
STARTCHAR fl
ENCODING -1
SWIDTH 42 0
DWIDTH 8 0
BBX 8 11 1 -2
BITMAP
1F
33
32
7A
26
66
66
64
4E
C0
C0
ENDCHAR
STARTCHAR endash
ENCODING -1
SWIDTH 42 0
DWIDTH 6 0
BBX 5 1 1 3
BITMAP
F8
ENDCHAR
STARTCHAR dagger
ENCODING -1
SWIDTH 42 0
DWIDTH 8 0
BBX 6 11 2 -2
BITMAP
18
10
30
FC
30
20
20
20
60
60
60
ENDCHAR
STARTCHAR Zcaron
ENCODING -1
SWIDTH 42 0
DWIDTH 8 0
BBX 8 12 1 0
BITMAP
12
0C
00
3F
26
0E
0C
18
30
70
62
FE
ENDCHAR
STARTCHAR oe
ENCODING -1
SWIDTH 42 0
DWIDTH 11 0
BBX 10 6 1 0
BITMAP
3DC0
6640
C6C0
C780
CC40
7780
ENDCHAR
STARTCHAR Ydieresis
ENCODING -1
SWIDTH 42 0
DWIDTH 8 0
BBX 8 11 2 0
BITMAP
3C
00
E3
62
64
28
30
30
30
30
F0
ENDCHAR
STARTCHAR dotlessi
ENCODING -1
SWIDTH 42 0
DWIDTH 4 0
BBX 3 6 1 0
BITMAP
E0
60
40
40
C0
E0
ENDCHAR
STARTCHAR lslash
ENCODING -1
SWIDTH 42 0
DWIDTH 4 0
BBX 5 9 0 0
BITMAP
70
30
30
30
38
E0
60
60
F0
ENDCHAR
STARTCHAR Lslash
ENCODING -1
SWIDTH 42 0
DWIDTH 7 0
BBX 7 9 0 0
BITMAP
38
30
30
38
70
20
60
62
FE
ENDCHAR
STARTCHAR daggerdbl
ENCODING -1
SWIDTH 42 0
DWIDTH 8 0
BBX 7 11 1 -2
BITMAP
0C
18
18
7E
18
10
10
FC
30
30
20
ENDCHAR
STARTCHAR fi
ENCODING -1
SWIDTH 42 0
DWIDTH 8 0
BBX 8 11 1 -2
BITMAP
1F
37
30
7E
22
66
66
66
4E
C0
C0
ENDCHAR
STARTCHAR guilsinglright
ENCODING -1
SWIDTH 42 0
DWIDTH 4 0
BBX 4 6 0 0
BITMAP
40
60
30
20
40
80
ENDCHAR
STARTCHAR OE
ENCODING -1
SWIDTH 42 0
DWIDTH 13 0
BBX 12 9 2 0
BITMAP
1FF0
3310
6300
C320
C3E0
C320
C200
E620
7FE0
ENDCHAR
STARTCHAR emdash
ENCODING -1
SWIDTH 42 0
DWIDTH 12 0
BBX 11 1 1 3
BITMAP
FFE0
ENDCHAR
STARTCHAR caron
ENCODING -1
SWIDTH 42 0
DWIDTH 7 0
BBX 4 2 4 7
BITMAP
90
60
ENDCHAR
STARTCHAR ogonek
ENCODING -1
SWIDTH 42 0
DWIDTH 7 0
BBX 2 2 2 -2
BITMAP
C0
C0
ENDCHAR
STARTCHAR hungarumlaut
ENCODING -1
SWIDTH 42 0
DWIDTH 7 0
BBX 4 2 4 7
BITMAP
70
C0
ENDCHAR
STARTCHAR guilsinglleft
ENCODING -1
SWIDTH 42 0
DWIDTH 4 0
BBX 4 6 1 0
BITMAP
10
20
40
C0
60
20
ENDCHAR
STARTCHAR dotaccent
ENCODING -1
SWIDTH 42 0
DWIDTH 7 0
BBX 2 1 4 8
BITMAP
C0
ENDCHAR
STARTCHAR breve
ENCODING -1
SWIDTH 42 0
DWIDTH 7 0
BBX 4 2 4 7
BITMAP
90
60
ENDCHAR
STARTCHAR bullet
ENCODING -1
SWIDTH 42 0
DWIDTH 8 0
BBX 4 4 2 2
BITMAP
60
F0
F0
60
ENDCHAR
STARTCHAR tilde
ENCODING -1
SWIDTH 42 0
DWIDTH 7 0
BBX 4 2 3 7
BITMAP
50
A0
ENDCHAR
STARTCHAR circumflex
ENCODING -1
SWIDTH 42 0
DWIDTH 7 0
BBX 4 2 3 7
BITMAP
60
90
ENDCHAR
STARTCHAR quotedblleft
ENCODING -1
SWIDTH 42 0
DWIDTH 6 0
BBX 5 4 2 5
BITMAP
58
D0
D8
D0
ENDCHAR
STARTCHAR quotesingle
ENCODING -1
SWIDTH 42 0
DWIDTH 3 0
BBX 2 4 2 5
BITMAP
C0
C0
80
80
ENDCHAR
STARTCHAR scaron
ENCODING -1
SWIDTH 42 0
DWIDTH 6 0
BBX 6 9 1 0
BITMAP
24
18
00
3C
68
70
38
98
F0
ENDCHAR
STARTCHAR ring
ENCODING -1
SWIDTH 42 0
DWIDTH 7 0
BBX 2 2 5 7
BITMAP
C0
C0
ENDCHAR
STARTCHAR quotesinglbase
ENCODING -1
SWIDTH 42 0
DWIDTH 3 0
BBX 3 4 0 -2
BITMAP
60
60
C0
C0
ENDCHAR
STARTCHAR florin
ENCODING -1
SWIDTH 42 0
DWIDTH 8 0
BBX 6 11 3 -2
BITMAP
1C
34
20
60
F0
60
60
40
C0
C0
C0
ENDCHAR
STARTCHAR trademark
ENCODING -1
SWIDTH 42 0
DWIDTH 13 0
BBX 12 5 2 4
BITMAP
FB30
2360
2360
63E0
6660
ENDCHAR
STARTCHAR fraction
ENCODING -1
SWIDTH 42 0
DWIDTH 1 0
BBX 10 9 -3 0
BITMAP
00C0
0180
0300
0600
0C00
1800
3000
6000
C000
ENDCHAR
STARTCHAR grave
ENCODING -1
SWIDTH 42 0
DWIDTH 7 0
BBX 2 2 4 7
BITMAP
80
40
ENDCHAR
STARTCHAR perthousand
ENCODING -1
SWIDTH 42 0
DWIDTH 14 0
BBX 11 9 2 0
BITMAP
6300
F400
F400
6800
16C0
3AA0
2BA0
4BE0
8CC0
ENDCHAR
STARTCHAR ellipsis
ENCODING -1
SWIDTH 42 0
DWIDTH 12 0
BBX 10 1 1 0
BITMAP
CCC0
ENDCHAR
STARTCHAR quotedblright
ENCODING -1
SWIDTH 42 0
DWIDTH 6 0
BBX 5 4 2 5
BITMAP
D8
48
58
D0
ENDCHAR
STARTCHAR Scaron
ENCODING -1
SWIDTH 42 0
DWIDTH 7 0
BBX 7 12 1 0
BITMAP
12
0C
00
1E
22
62
70
38
0C
8C
8C
F8
ENDCHAR
STARTCHAR quotedblbase
ENCODING -1
SWIDTH 42 0
DWIDTH 6 0
BBX 5 4 0 -2
BITMAP
58
D8
58
D0
ENDCHAR
STARTCHAR zcaron
ENCODING -1
SWIDTH 42 0
DWIDTH 7 0
BBX 7 9 0 0
BITMAP
12
0C
00
7E
4C
18
30
64
FC
ENDCHAR
ENDFONT
